<svg width="21" height="17" viewBox="1 0 20 18" fill="none" xmlns="http://www.w3.org/2000/svg">
<path fill-rule="evenodd" clip-rule="evenodd" d="M4.78457 8.42133L5.98625 7.09297H5.98657L7.06935 8.10285L4.00668 11.4885L0.943359 8.10285L2.02678 7.09297L3.0927 8.27165C3.37555 5.11113 5.43353 2.36208 8.41682 1.27899C9.29029 0.96148 10.2013 0.800781 11.1241 0.800781C13.3735 0.800781 15.5381 1.77469 17.0628 3.47304L17.2604 3.69336L16.0108 4.86231L15.8132 4.642C14.6089 3.30036 12.8989 2.53088 11.1228 2.53088C10.3934 2.53112 9.66968 2.65908 8.98445 2.90898C6.61252 3.77014 5.00586 5.92402 4.78457 8.42133ZM17.9007 6.27492L20.9641 9.6606V9.66093L19.8803 10.6702L18.8102 9.48759C18.5422 12.6659 16.4781 15.4344 13.4815 16.522C12.608 16.8389 11.6973 16.9999 10.7746 16.9999C8.52514 16.9999 6.36024 16.0257 4.8362 14.3277L4.63856 14.1074L5.88787 12.9384L6.0855 13.1587C7.28977 14.5004 8.99978 15.2698 10.7759 15.2698C11.5052 15.2696 12.2289 15.1418 12.9142 14.8921C15.2965 14.027 16.9067 11.8589 17.1173 9.34795L15.9208 10.6705L14.8381 9.6606L17.9007 6.27492Z" fill="white"/>
</svg>
